<svg width="512" height="512" viewBox="0 0 512 512" fill="none" xmlns="http://www.w3.org/2000/svg">
<g clip-path="url(#clip0_1_2)">
<path d="M0 0C168.96 0 337.92 0 512 0C512 168.96 512 337.92 512 512C343.04 512 174.08 512 0 512C0 343.04 0 174.08 0 0Z" fill="#FFFEFE"/>
<path d="M0 0C168.96 0 337.92 0 512 0C512 168.96 512 337.92 512 512C343.04 512 174.08 512 0 512C0 343.04 0 174.08 0 0ZM218 36C216.064 36.29 216.064 36.29 214.09 36.5859C160.934 45.8149 110.304 78.0504 78.2749 121.285C77.0413 122.944 75.7827 124.582 74.5195 126.219C52.7931 154.898 41.2478 188.99 35 224C34.7306 225.327 34.7306 225.327 34.4558 226.68C33.8229 231.29 33.7782 235.855 33.7266 240.504C33.7138 241.527 33.7011 242.549 33.6879 243.603C33.1338 298.834 45.3106 350.404 81 394C82.224 395.529 82.224 395.529 83.4727 397.09C94.9997 411.28 108.071 424.411 123 435C123.763 435.542 124.525 436.084 125.311 436.643C144.26 449.973 163.988 460.675 186 468C186.943 468.315 187.885 468.629 188.856 468.953C222.873 480.009 258.82 481.896 294 476C294.758 475.877 295.516 475.753 296.297 475.626C325.547 470.642 354.51 458.56 379 442C379.593 441.603 380.187 441.207 380.798 440.798C400.895 427.273 419.4 410.215 433.757 390.683C434.975 389.034 436.221 387.411 437.473 385.789C450.726 368.313 459.42 348.448 467 328C467.28 327.267 467.559 326.534 467.847 325.779C471.694 315.655 473.764 305.274 475.542 294.625C475.84 292.915 476.174 291.21 476.546 289.513C478.559 279.643 478.336 269.66 478.316 259.631C478.313 256.469 478.336 253.308 478.361 250.146C478.401 237.473 477.474 225.43 475 213C474.807 211.981 474.613 210.963 474.414 209.913C467.654 176.208 452.35 144.799 431 118C430.556 117.439 430.112 116.877 429.654 116.299C418.945 102.879 406.682 90.3806 393 80C392.477 79.5901 391.954 79.1802 391.416 78.7578C361.818 55.5666 325.64 40.4644 288.441 35.3423C286.287 35.0402 284.147 34.694 282.004 34.3242C260.817 31.0286 239.059 32.6196 218 36Z" fill="#FFFCFD"/>
<path d="M225.125 73.625C226.139 73.6263 227.154 73.6276 228.199 73.6289C235.719 73.719 235.719 73.719 238 76C240.8 76.3183 243.567 76.5532 246.375 76.75C256.021 77.6211 263.535 80.2636 271.062 86.5625C283.91 102.726 279.695 128.814 277.633 147.98C274.595 173.379 270.492 199.874 262.258 224.148C261.196 227.549 260.937 229.871 261.559 233.371C262.525 239.433 260.221 244.467 258.062 250.062C257.651 251.163 257.239 252.263 256.815 253.397C250.221 270.678 242.08 286.692 229 300C228.045 300.975 228.045 300.975 227.07 301.969C221.64 307.106 213.693 313 206 313C205.907 323.041 205.836 333.082 205.793 343.124C205.772 347.788 205.744 352.452 205.698 357.116C205.654 361.629 205.631 366.141 205.62 370.654C205.613 372.364 205.599 374.074 205.577 375.784C205.331 395.924 209.96 413.841 223.477 429.457C231.965 438.011 240.225 444.029 252.375 444.313C264.823 443.954 277.017 440.701 286.359 431.926C294.062 422.884 298.498 411.843 303 401C322.435 354.621 322.435 354.621 345.945 343.191C354.844 339.721 363.645 339.401 373.094 338.877C381.546 338.326 390.411 337.539 397.938 333.375C407.356 322.53 408.814 308.999 408.184 295.124C406.429 274.827 394.127 261.234 380.895 247.043C380.192 246.288 380.192 246.288 379.475 245.517C378.451 244.463 377.389 243.445 376.302 242.456C372.075 238.573 372.075 238.573 371.625 235.125C371.749 234.424 371.872 233.723 372 233C371.094 233.361 370.188 233.722 369.254 234.094C359.615 237.766 352.139 239.76 342.195 236.035C333.936 232.141 327.835 225.568 324.125 217.25C321.531 209.33 322.173 200.918 325.605 193.387C330.378 185.219 336.294 180.594 344.75 176.75C355.937 174.168 364.676 177.182 374.312 183C380.318 188.79 384.248 196.714 384.784 205.02C384.902 213.413 382.501 219.928 378 227C378.746 226.77 379.492 226.541 380.261 226.304C383 226 383 226 384.954 227.225C385.878 228.167 385.878 228.167 386.82 229.129C387.515 229.828 388.21 230.526 388.927 231.246C389.652 232.011 390.378 232.775 391.125 233.562C391.877 234.336 392.629 235.109 393.404 235.906C399.789 242.568 405.583 249.537 411 257C411.614 257.83 412.227 258.66 412.859 259.516C422.549 273.234 426.241 291.436 425 308C424.929 309.053 424.858 310.106 424.785 311.191C423.332 324.5 417.72 337.865 407.238 346.441C397.207 353.486 384.539 354.91 372.625 355.438C359.296 356.14 347.698 358.798 338.125 368.875C329.281 379.316 324.09 391.891 319 404.438C315.577 412.852 312.085 421.154 307.836 429.191C307.359 430.1 307.359 430.1 306.873 431.026C298.801 445.92 285.713 453.739 270.098 458.973C257.641 462.568 244.266 462.496 232.488 456.781C213.284 445.928 199.474 429.595 193.125 408.563C184.699 378.171 189.207 344.18 190 313C189.384 312.801 188.769 312.601 188.134 312.396C187.326 312.13 186.517 311.865 185.683 311.592C184.882 311.331 184.081 311.069 183.255 310.8C164.749 304.235 153.074 285.12 144.847 268.344C133.61 244.375 133.61 244.375 135.656 233.512C136.507 227.296 134.489 220.758 132.937 214.75C124.418 180.67 126.695 131.27 141 99C148.155 87.6366 162.295 84.6563 174.328 80.9844C177.107 80.1726 177.107 80.1726 179 78C183.249 76.8048 187.61 76.68 192 76.5625C192.699 76.5167 193.397 76.471 194.117 76.4238C197.003 76.3612 199.292 76.4182 201.578 78.2964C205.174 82.5446 206.128 85.4509 206.523 90.9297C206 93 206 93 204.039 95.2344C199.914 97.6308 196.679 97.5193 192 97.375C191.206 97.3737 190.412 97.3724 189.594 97.3711C185.362 97.3076 181.77 97.1276 178 95C177.34 94.01 176.68 93.02 176 92C170.178 92.5417 165.2 93.7248 159.75 95.8125C159.056 96.0606 158.363 96.3088 157.648 96.5645C152.148 98.635 149.145 100.801 146.437 106C139.96 122.65 139.665 140.544 139.739 158.146C139.75 161.193 139.739 164.24 139.727 167.287C139.523 182.28 139.523 182.28 142 197C142.66 197.66 143.32 198.32 144 199C144.456 201.197 144.84 203.409 145.187 205.625C147.734 219.789 154.102 235.215 165.937 243.938C172.937 248.694 179.662 250.569 188.062 250.5C188.889 250.494 189.715 250.487 190.567 250.48C203.801 250.093 214.58 245.041 225 237C226.183 236.091 226.183 236.091 227.391 235.164C241.826 223.202 250.731 205.717 259.215 189.359C261 186 261 186 262 185C262.405 183.304 262.757 181.595 263.086 179.883C263.397 178.273 263.397 178.273 263.714 176.631C264.041 174.896 264.041 174.896 264.375 173.125C264.598 171.949 264.822 170.772 265.052 169.56C273.887 131.024 273.887 131.025 266.711 93.8281C263.148 89.2175 258.722 86.5945 252.935 85.6702C250.809 85.4876 248.695 85.3808 246.562 85.3125C245.831 85.2783 245.099 85.2442 244.346 85.209C242.564 85.1275 240.782 85.062 239 85C238.91 85.7786 238.82 86.5572 238.727 87.3594C238 90 238 90 236.461 91.3281C229.16 94.5547 221.879 94.7924 214 95C210.971 89.1591 209.102 84.622 210 78C213.423 72.3448 219.259 73.4823 225.125 73.625Z" fill="#2A9B7D"/>
<path d="M256 19.6875C256.729 19.6836 257.458 19.6798 258.209 19.6758C268.627 19.6486 278.69 20.4791 289 22C289.686 22.1002 290.372 22.2003 291.078 22.3036C316.407 26.034 341.442 33.8942 364 46C364.739 46.3924 365.479 46.7847 366.24 47.189C376.287 52.5419 385.851 58.2007 395 65C395.551 65.408 396.102 65.816 396.669 66.2363C412.796 78.274 427.498 92.2395 440 108C440.807 109.002 441.614 110.003 442.445 111.035C466.838 141.665 482.493 178.531 489 217C489.195 218.047 489.389 219.093 489.59 220.172C493.607 242.338 493.835 266.802 490 289C489.777 290.463 489.558 291.927 489.34 293.391C485.467 318.852 477.428 343.391 465 366C464.297 367.319 463.593 368.638 462.891 369.957C454.847 384.845 445.276 398.395 434 411C433.536 411.521 433.071 412.042 432.593 412.578C429.442 416.097 426.237 419.56 423 423C422.274 423.78 421.549 424.56 420.801 425.363C414.949 431.453 408.452 436.538 401.752 441.645C400.128 442.901 398.537 444.199 396.949 445.5C387.361 453.26 376.821 459.128 366 465C365.316 465.379 364.632 465.758 363.927 466.148C344.699 476.752 323.465 483.687 302 488C300.975 488.22 299.95 488.441 298.895 488.668C296.269 489.196 293.65 489.616 291 490C289.269 490.276 289.269 490.276 287.504 490.559C257.536 494.886 225.187 492.776 196 485C195.231 484.801 194.462 484.601 193.669 484.396C155.272 474.281 120.508 453.415 92 426C91.4596 425.481 90.9191 424.963 90.3623 424.429C83.0323 417.354 76.211 410.096 70 402C69.591 401.478 69.1821 400.956 68.7607 400.418C44.7099 369.619 27.5401 330.824 22 292C21.8887 291.311 21.7773 290.623 21.6626 289.913C16.6383 258.343 18.5866 222.508 28 192C28.2356 191.218 28.4712 190.436 28.7139 189.631C42.8302 143.332 70.5536 100.785 109 71C110.33 69.8921 110.33 69.8921 111.688 68.7617C152.137 35.8966 204.398 19.8565 256 19.6875ZM218 36C216.064 36.29 216.064 36.29 214.09 36.5859C160.934 45.8149 110.304 78.0504 78.2749 121.285C77.0413 122.944 75.7827 124.582 74.5195 126.219C52.7931 154.898 41.2478 188.99 35 224C34.7306 225.327 34.7306 225.327 34.4558 226.68C33.8229 231.29 33.7782 235.855 33.7266 240.504C33.7138 241.527 33.7011 242.549 33.6879 243.603C33.1338 298.834 45.3106 350.404 81 394C82.224 395.529 82.224 395.529 83.4727 397.09C94.9997 411.28 108.071 424.41 123 435C123.763 435.542 124.525 436.084 125.311 436.643C144.26 449.973 163.988 460.675 186 468C186.943 468.315 187.885 468.629 188.856 468.953C222.873 480.009 258.82 481.896 294 476C294.758 475.877 295.516 475.753 296.297 475.626C325.547 470.642 354.51 458.56 379 442C379.593 441.603 380.187 441.207 380.798 440.798C400.895 427.273 419.4 410.215 433.757 390.683C434.975 389.034 436.221 387.411 437.473 385.789C450.726 368.313 459.42 348.448 467 328C467.28 327.267 467.559 326.534 467.847 325.779C471.694 315.655 473.764 305.274 475.542 294.625C475.84 292.915 476.174 291.21 476.546 289.513C478.559 279.643 478.336 269.66 478.316 259.631C478.313 256.469 478.336 253.308 478.361 250.146C478.401 237.473 477.474 225.43 475 213C474.807 211.981 474.613 210.963 474.414 209.913C467.654 176.208 452.35 144.799 431 118C430.556 117.439 430.112 116.877 429.654 116.299C418.945 102.879 406.682 90.3806 393 80C392.477 79.5901 391.954 79.1802 391.416 78.7578C361.818 55.5666 325.64 40.4644 288.441 35.3423C286.287 35.0402 284.147 34.694 282.004 34.3242C260.818 31.0286 239.059 32.6196 218 36Z" fill="#2A9B7D"/>
<path d="M274 0C352.54 0 431.08 0 512 0C512 81.84 512 163.68 512 248C511.67 248 511.34 248 511 248C510.961 246.395 510.961 246.395 510.922 244.758C509.102 189.979 488.491 137.393 454 95C453.268 94.0946 453.268 94.0946 452.521 93.1709C441.055 79.0894 428.357 66.0841 413.73 55.2856C411.99 53.9928 410.278 52.6699 408.566 51.3398C387.535 35.197 363.942 23.4502 339.005 14.7139C336.44 13.8007 333.911 12.801 331.375 11.8125C324.107 9.18382 316.546 7.60797 309 6C308.333 5.85675 307.666 5.71351 306.979 5.56592C296.051 3.25941 285.109 2.02634 274 1C274 0.67 274 0.34 274 0Z" fill="#2A9B7D"/>
<path d="M511 274C511.33 274 511.66 274 512 274C512 352.54 512 431.08 512 512C433.46 512 354.92 512 274 512C274 511.67 274 511.34 274 511C274.961 510.875 275.922 510.749 276.911 510.62C302.779 507.378 302.779 507.378 328 501C328.885 500.718 329.77 500.436 330.681 500.145C379.104 484.538 423.471 456.377 455 416C455.777 415.04 456.555 414.079 457.355 413.09C489.429 372.756 505.312 324.614 511 274Z" fill="#2A9B7D"/>
<path d="M0 274C0.33 274 0.66 274 1 274C1.1049 274.933 1.1049 274.933 1.21191 275.886C8.33069 338.261 32.2913 393.362 77 438C77.7928 438.828 78.5855 439.655 79.4023 440.508C86.4195 447.752 93.9061 453.994 102 460C102.987 460.737 102.987 460.737 103.993 461.489C114.513 469.298 125.405 475.918 137 482C137.653 482.35 138.305 482.7 138.978 483.061C157.996 493.252 178.007 500.175 199 505C199.684 505.162 200.369 505.324 201.074 505.491C213.21 508.33 225.636 509.567 238 511C238 511.33 238 511.66 238 512C159.46 512 80.92 512 0 512C0 433.46 0 354.92 0 274Z" fill="#2A9B7D"/>
<path d="M0 0C77.88 0 155.76 0 236 0C236 0.33 236 0.66 236 1C235.268 1.08451 234.536 1.16903 233.782 1.2561C207.575 4.36602 182.363 9.54417 158 20C157.328 20.2884 156.655 20.5769 155.962 20.874C151.577 22.7862 147.276 24.8537 143 27C141.891 27.5528 141.891 27.5528 140.759 28.1167C129.641 33.6941 119.116 39.7601 109 47C108.344 47.4666 107.688 47.9333 107.012 48.4141C98.4563 54.5427 90.4722 61.0324 82.8672 68.3086C80.8875 70.1669 78.9351 71.9056 76.8398 73.6172C74.5303 75.555 72.6148 77.3916 70.6875 79.6875C68.8448 81.8587 67.0014 83.9985 65.0469 86.0703C27.4377 126.047 7.31366 179.204 1 233C0.67 233 0.34 233 0 233C0 156.11 0 79.22 0 0Z" fill="#2A9B7D"/>
</g>
<defs>
<clipPath id="clip0_1_2">
<rect width="512" height="512" fill="white"/>
</clipPath>
</defs>
</svg>
