<?xml version="1.0" encoding="UTF-8"?>
<svg version="1.1" xmlns="http://www.w3.org/2000/svg" width="512" height="512">
<path d="M0 0 C168.96 0 337.92 0 512 0 C512 168.96 512 337.92 512 512 C343.04 512 174.08 512 0 512 C0 343.04 0 174.08 0 0 Z " fill="#FFFEFE" transform="translate(0,0)"/>
<path d="M0 0 C168.96 0 337.92 0 512 0 C512 168.96 512 337.92 512 512 C343.04 512 174.08 512 0 512 C0 343.04 0 174.08 0 0 Z M218 36 C216.06447266 36.29003906 216.06447266 36.29003906 214.08984375 36.5859375 C160.93353891 45.81487881 110.30380009 78.05035704 78.27490234 121.28515625 C77.04129461 122.94445551 75.78269025 124.58189604 74.51953125 126.21875 C52.7930721 154.89836622 41.24784488 188.98969789 35 224 C34.73062622 225.32668701 34.73062622 225.32668701 34.45581055 226.68017578 C33.82285783 231.29018706 33.77819453 235.85514281 33.7265625 240.50390625 C33.71380783 241.52669678 33.70105316 242.5494873 33.68791199 243.60327148 C33.13382366 298.83358475 45.3105618 350.4043212 81 394 C82.22396484 395.52947266 82.22396484 395.52947266 83.47265625 397.08984375 C94.99966533 411.27981457 108.07132585 424.41050644 123 435 C123.7626416 435.54221191 124.5252832 436.08442383 125.31103516 436.64306641 C144.26036663 449.97337666 163.98763149 460.67547555 186 468 C186.94262695 468.31453125 187.88525391 468.6290625 188.85644531 468.953125 C222.87296712 480.00877777 258.81950319 481.89613609 294 476 C294.75796875 475.8767334 295.5159375 475.7534668 296.296875 475.62646484 C325.54742275 470.64239569 354.51025808 458.55966799 379 442 C379.59329102 441.60345215 380.18658203 441.2069043 380.79785156 440.79833984 C400.89474683 427.27307396 419.39951514 410.21546314 433.75732422 390.68261719 C434.97472047 389.03422918 436.22061277 387.41121934 437.47265625 385.7890625 C450.72572893 368.31337716 459.41968242 348.44811796 467 328 C467.27956543 327.26700684 467.55913086 326.53401367 467.84716797 325.77880859 C471.69379739 315.65516784 473.76386715 305.27362651 475.54174805 294.62524414 C475.84035263 292.91459147 476.1736188 291.20951833 476.54614258 289.51342773 C478.559054 279.6427132 478.33646436 269.66012015 478.31567383 259.63061523 C478.31253119 256.4688815 478.33597216 253.30810186 478.36132812 250.14648438 C478.40107789 237.47313053 477.47396364 225.42971854 475 213 C474.80656006 211.98139893 474.61312012 210.96279785 474.41381836 209.91333008 C467.6536256 176.20771456 452.34978151 144.79912674 431 118 C430.55575684 117.43861328 430.11151367 116.87722656 429.65380859 116.29882812 C418.94492161 102.87949325 406.68182787 90.38063369 393 80 C392.47712402 79.59007812 391.95424805 79.18015625 391.41552734 78.7578125 C361.81758761 55.56661313 325.64000809 40.46444558 288.44091797 35.34228516 C286.28660121 35.04018953 284.1473937 34.69397444 282.00390625 34.32421875 C260.81748632 31.02855343 239.05938089 32.61964244 218 36 Z " fill="#FFFCFD" transform="translate(0,0)"/>
<path d="M0 0 C1.01449219 0.00128906 2.02898437 0.00257812 3.07421875 0.00390625 C10.59402375 0.09402375 10.59402375 0.09402375 12.875 2.375 C15.67488258 2.69330244 18.44178992 2.92817749 21.25 3.125 C30.89560554 3.99611065 38.40954484 6.63859874 45.9375 12.9375 C58.78538834 29.10097243 54.5703477 55.18869431 52.5078125 74.35546875 C49.46967407 99.75369022 45.36750141 126.24933183 37.1328125 150.5234375 C36.07095555 153.92372825 35.81224661 156.24585128 36.43359375 159.74609375 C37.40021049 165.8077247 35.09596615 170.84157172 32.9375 176.4375 C32.52580566 177.53787598 32.11411133 178.63825195 31.68994141 179.77197266 C25.0960088 197.05288549 16.95472608 213.06740412 3.875 226.375 C2.91980469 227.34953125 2.91980469 227.34953125 1.9453125 228.34375 C-3.48536968 233.48149082 -11.43227191 239.375 -19.125 239.375 C-19.21825535 249.4161795 -19.28904387 259.45725361 -19.33224869 269.49878025 C-19.35299951 274.1629996 -19.3810843 278.82691964 -19.42675781 283.4909668 C-19.47066719 288.00382812 -19.49423075 292.51640412 -19.50450897 297.02946281 C-19.51182039 298.73921123 -19.52609413 300.44894651 -19.54792023 302.15857124 C-19.79448491 322.29854615 -15.16534518 340.21608159 -1.6484375 355.83203125 C6.83964021 364.38580615 15.10001902 370.40395319 27.25 370.6875 C39.69784793 370.3293916 51.89182922 367.07642498 61.234375 358.30078125 C68.93740301 349.25889361 73.37256432 338.2180217 77.875 327.375 C97.30983662 280.99601433 97.30983662 280.99601433 120.8203125 269.56640625 C129.71860653 266.095844 138.51986561 265.7762779 147.96875 265.25195312 C156.4211018 264.70135979 165.28553525 263.91385284 172.8125 259.75 C182.23092093 248.90454559 183.6890059 235.37439481 183.05859375 221.49902344 C181.30419645 201.20213977 169.00221509 187.60879651 155.76953125 173.41796875 C155.06691162 172.66265869 155.06691162 172.66265869 154.35009766 171.89208984 C153.32555486 170.83838098 152.26440356 169.81954515 151.17724609 168.83056641 C146.94968068 164.94755192 146.94968068 164.94755192 146.5 161.5 C146.62375 160.79875 146.7475 160.0975 146.875 159.375 C145.96878906 159.7359375 145.06257812 160.096875 144.12890625 160.46875 C134.49039133 164.14056521 127.01400397 166.13470967 117.0703125 162.41015625 C108.81141805 158.51583769 102.71021828 151.94279168 99 143.625 C96.40646365 135.70461952 97.04848428 127.29268113 100.48046875 119.76171875 C105.25255765 111.59436212 111.16922209 106.96853541 119.625 103.125 C130.81224117 100.54332896 139.55105411 103.55676852 149.1875 109.375 C155.19303675 115.16541304 159.12281165 123.08912752 159.65869141 131.39526367 C159.77707896 139.78773746 157.37562235 146.30259345 152.875 153.375 C153.62120605 153.14546631 154.36741211 152.91593262 155.13623047 152.67944336 C157.875 152.375 157.875 152.375 159.82861328 153.59985352 C160.75262939 154.54235962 160.75262939 154.54235962 161.6953125 155.50390625 C162.39035889 156.20257813 163.08540527 156.90125 163.80151367 157.62109375 C164.52701416 158.38550781 165.25251465 159.14992187 166 159.9375 C166.75192627 160.7109375 167.50385254 161.484375 168.27856445 162.28125 C174.66390168 168.94349713 180.45768393 175.91198415 185.875 183.375 C186.48859375 184.20515625 187.1021875 185.0353125 187.734375 185.890625 C197.42355888 199.60897446 201.11583804 217.8107969 199.875 234.375 C199.80410156 235.42816406 199.73320312 236.48132813 199.66015625 237.56640625 C198.20684427 250.87482495 192.59511565 264.24035992 182.11328125 272.81640625 C172.0823138 279.86121567 159.41396156 281.28471713 147.5 281.8125 C134.17138744 282.5152136 122.57284019 285.17332612 113 295.25 C104.15649676 305.69093925 98.9650745 318.26619351 93.875 330.8125 C90.45240109 339.22720388 86.95970507 347.52893391 82.7109375 355.56640625 C82.23430664 356.47452309 82.23430664 356.47452309 81.74804688 357.40098572 C73.67608814 372.29490556 60.58831553 380.11441377 44.97265625 385.34765625 C32.51608448 388.94250582 19.14127868 388.87123475 7.36328125 383.15625 C-11.84075874 372.30310338 -25.65079365 355.9704449 -32 334.9375 C-40.42621114 304.5458744 -35.91773356 270.55515076 -35.125 239.375 C-35.74065323 239.17552261 -36.35630646 238.97604523 -36.99061584 238.77052307 C-37.79945724 238.50537399 -38.60829865 238.24022491 -39.44165039 237.96704102 C-40.24292862 237.70568863 -41.04420685 237.44433624 -41.86976624 237.17506409 C-60.37578653 230.60989002 -72.05131178 211.49459291 -80.27758789 194.71948242 C-91.51514819 170.74968247 -91.51514819 170.74968247 -89.46875 159.88671875 C-88.6180565 153.67085601 -90.63565019 147.1325398 -92.1875 141.125 C-100.707425 107.04529998 -98.43025809 57.6450008 -84.125 25.375 C-76.9702618 14.01159227 -62.82955521 11.03131967 -50.796875 7.359375 C-48.01823474 6.54760686 -48.01823474 6.54760686 -46.125 4.375 C-41.87554011 3.17983941 -37.51512962 3.05494812 -33.125 2.9375 C-32.42632812 2.89173828 -31.72765625 2.84597656 -31.0078125 2.79882812 C-28.12197571 2.73621091 -25.83322708 2.79321074 -23.546875 4.67138672 C-19.95098382 8.91954982 -18.99737149 11.82585782 -18.6015625 17.3046875 C-19.125 19.375 -19.125 19.375 -21.0859375 21.609375 C-25.21076088 24.00580195 -28.4456729 23.89432989 -33.125 23.75 C-33.9190625 23.74871094 -34.713125 23.74742188 -35.53125 23.74609375 C-39.76267591 23.68262236 -43.3552597 23.50261858 -47.125 21.375 C-47.785 20.385 -48.445 19.395 -49.125 18.375 C-54.94664031 18.91669972 -59.92524125 20.09980725 -65.375 22.1875 C-66.06851563 22.43564453 -66.76203125 22.68378906 -67.4765625 22.93945312 C-72.97682275 25.00995339 -75.9798523 27.17631641 -78.6875 32.375 C-85.16451827 49.0251611 -85.45965748 66.91945127 -85.38574219 84.52124023 C-85.37497917 87.56839722 -85.38572173 90.61496966 -85.3984375 93.66210938 C-85.60174354 108.65485494 -85.60174354 108.65485494 -83.125 123.375 C-82.465 124.035 -81.805 124.695 -81.125 125.375 C-80.66859873 127.57161513 -80.28512996 129.78356738 -79.9375 132 C-77.39132629 146.16438505 -71.02291683 161.58976161 -59.1875 170.3125 C-52.1876741 175.06864214 -45.46310628 176.94436201 -37.0625 176.875 C-36.23613037 176.86855469 -35.40976074 176.86210937 -34.55834961 176.85546875 C-21.32360075 176.46797345 -10.54541898 171.41619037 -0.125 163.375 C1.05835938 162.46621094 1.05835938 162.46621094 2.265625 161.5390625 C16.70071054 149.57712099 25.60639994 132.09246635 34.08984375 115.734375 C35.875 112.375 35.875 112.375 36.875 111.375 C37.27989845 109.6789463 37.63175841 107.97017404 37.9609375 106.2578125 C38.2717627 104.6483374 38.2717627 104.6483374 38.58886719 103.00634766 C38.91612793 101.27070557 38.91612793 101.27070557 39.25 99.5 C39.47333008 98.32356934 39.69666016 97.14713867 39.92675781 95.93505859 C48.76208507 57.39949955 48.76208507 57.39949955 41.5859375 20.203125 C38.02316468 15.59247782 33.59702963 12.9695214 27.81005859 12.04516602 C25.68368201 11.86261813 23.57048935 11.7558025 21.4375 11.6875 C20.70595703 11.65333984 19.97441406 11.61917969 19.22070312 11.58398438 C17.43930438 11.50248247 15.65718251 11.43704477 13.875 11.375 C13.78476563 12.15359375 13.69453125 12.9321875 13.6015625 13.734375 C12.875 16.375 12.875 16.375 11.3359375 17.703125 C4.03514846 20.92969094 -3.24601059 21.167385 -11.125 21.375 C-14.15363876 15.53405381 -16.02289902 10.99700526 -15.125 4.375 C-11.70185827 -1.28019029 -5.86595416 -0.14270567 0 0 Z " fill="#FF3488" transform="translate(225.125,73.625)"/>
<path d="M0 0 C0.72881378 -0.00385712 1.45762756 -0.00771423 2.20852661 -0.01168823 C12.6271879 -0.03890944 22.68992373 0.79162172 33 2.3125 C33.6858165 2.41267426 34.371633 2.51284851 35.07823181 2.61605835 C60.40746691 6.34646712 85.44179656 14.20668541 108 26.3125 C108.73927734 26.7048584 109.47855469 27.0972168 110.24023438 27.50146484 C120.28681268 32.85439406 129.8506018 38.5131966 139 45.3125 C139.55075195 45.72048828 140.10150391 46.12847656 140.66894531 46.54882812 C156.7958118 58.58654613 171.49815604 72.55197868 184 88.3125 C184.80695313 89.31410156 185.61390625 90.31570312 186.4453125 91.34765625 C210.83839594 121.97703479 226.49308546 158.84394863 233 197.3125 C233.19464844 198.35921875 233.38929688 199.4059375 233.58984375 200.484375 C237.60679282 222.65089686 237.83468089 247.11422307 234 269.3125 C233.77744656 270.77566339 233.55752697 272.23922912 233.33984375 273.703125 C229.46653866 299.16440992 221.4277279 323.70396772 209 346.3125 C208.29653615 347.63132973 207.5934201 348.95034502 206.890625 350.26953125 C198.8472216 365.15765676 189.27592812 378.70765163 178 391.3125 C177.53561523 391.83328125 177.07123047 392.3540625 176.59277344 392.890625 C173.44178936 396.40962312 170.2365963 399.87210004 167 403.3125 C166.27425781 404.09238281 165.54851562 404.87226563 164.80078125 405.67578125 C158.9487199 411.76581922 152.45238028 416.8502724 145.75244141 421.95703125 C144.12847121 423.21313079 142.53720441 424.51120573 140.94921875 425.8125 C131.36057992 433.57295477 120.82065399 439.4407944 110 445.3125 C109.31599121 445.69148438 108.63198242 446.07046875 107.92724609 446.4609375 C88.69916279 457.06403708 67.46538754 463.99914822 46 468.3125 C44.97519531 468.53292969 43.95039063 468.75335938 42.89453125 468.98046875 C40.26900864 469.50875091 37.65041613 469.92854379 35 470.3125 C33.26943359 470.58900391 33.26943359 470.58900391 31.50390625 470.87109375 C1.53567357 475.19898122 -30.812893 473.08836625 -60 465.3125 C-60.76908691 465.11317871 -61.53817383 464.91385742 -62.33056641 464.70849609 C-100.72752675 454.59337716 -135.49217887 433.72736952 -164 406.3125 C-164.54043945 405.79397461 -165.08087891 405.27544922 -165.63769531 404.74121094 C-172.96768867 397.66646982 -179.78896069 390.40864423 -186 382.3125 C-186.40895508 381.79059082 -186.81791016 381.26868164 -187.23925781 380.73095703 C-211.29012013 349.93103605 -228.45994325 311.13651972 -234 272.3125 C-234.11134277 271.62381836 -234.22268555 270.93513672 -234.33740234 270.22558594 C-239.3616661 238.65510142 -237.4133848 202.8207613 -228 172.3125 C-227.76442383 171.53068359 -227.52884766 170.74886719 -227.28613281 169.94335938 C-213.16978473 123.64457156 -185.44645093 81.09732318 -147 51.3125 C-145.6696875 50.20455078 -145.6696875 50.20455078 -144.3125 49.07421875 C-103.8630934 16.20907588 -51.60221377 0.16903949 0 0 Z M-38 16.3125 C-39.93552734 16.60253906 -39.93552734 16.60253906 -41.91015625 16.8984375 C-95.06646109 26.12737881 -145.69619991 58.36285704 -177.72509766 101.59765625 C-178.95870539 103.25695551 -180.21730975 104.89439604 -181.48046875 106.53125 C-203.2069279 135.21086622 -214.75215512 169.30219789 -221 204.3125 C-221.26937378 205.63918701 -221.26937378 205.63918701 -221.54418945 206.99267578 C-222.17714217 211.60268706 -222.22180547 216.16764281 -222.2734375 220.81640625 C-222.28619217 221.83919678 -222.29894684 222.8619873 -222.31208801 223.91577148 C-222.86617634 279.14608475 -210.6894382 330.7168212 -175 374.3125 C-173.77603516 375.84197266 -173.77603516 375.84197266 -172.52734375 377.40234375 C-161.00033467 391.59231457 -147.92867415 404.72300644 -133 415.3125 C-132.2373584 415.85471191 -131.4747168 416.39692383 -130.68896484 416.95556641 C-111.73963337 430.28587666 -92.01236851 440.98797555 -70 448.3125 C-69.05737305 448.62703125 -68.11474609 448.9415625 -67.14355469 449.265625 C-33.12703288 460.32127777 2.81950319 462.20863609 38 456.3125 C38.75796875 456.1892334 39.5159375 456.0659668 40.296875 455.93896484 C69.54742275 450.95489569 98.51025808 438.87216799 123 422.3125 C123.59329102 421.91595215 124.18658203 421.5194043 124.79785156 421.11083984 C144.89474683 407.58557396 163.39951514 390.52796314 177.75732422 370.99511719 C178.97472047 369.34672918 180.22061277 367.72371934 181.47265625 366.1015625 C194.72572893 348.62587716 203.41968242 328.76061796 211 308.3125 C211.27956543 307.57950684 211.55913086 306.84651367 211.84716797 306.09130859 C215.69379739 295.96766784 217.76386715 285.58612651 219.54174805 274.93774414 C219.84035263 273.22709147 220.1736188 271.52201833 220.54614258 269.82592773 C222.559054 259.9552132 222.33646436 249.97262015 222.31567383 239.94311523 C222.31253119 236.7813815 222.33597216 233.62060186 222.36132812 230.45898438 C222.40107789 217.78563053 221.47396364 205.74221854 219 193.3125 C218.80656006 192.29389893 218.61312012 191.27529785 218.41381836 190.22583008 C211.6536256 156.52021456 196.34978151 125.11162674 175 98.3125 C174.55575684 97.75111328 174.11151367 97.18972656 173.65380859 96.61132812 C162.94492161 83.19199325 150.68182787 70.69313369 137 60.3125 C136.47712402 59.90257812 135.95424805 59.49265625 135.41552734 59.0703125 C105.81758761 35.87911313 69.64000809 20.77694558 32.44091797 15.65478516 C30.28660121 15.35268953 28.1473937 15.00647444 26.00390625 14.63671875 C4.81748632 11.34105343 -16.94061911 12.93214244 -38 16.3125 Z " fill="#FF3689" transform="translate(256,19.6875)"/>
<path d="M0 0 C78.54 0 157.08 0 238 0 C238 81.84 238 163.68 238 248 C237.67 248 237.34 248 237 248 C236.96132813 246.39511719 236.96132813 246.39511719 236.921875 244.7578125 C235.10181829 189.97899159 214.49106906 137.39258113 180 95 C179.26813477 94.09459473 179.26813477 94.09459473 178.52148438 93.17089844 C167.05456649 79.08939914 154.35712681 66.08412605 139.72998047 55.28564453 C137.99037508 53.99284719 136.27761906 52.669925 134.56640625 51.33984375 C113.53500672 35.19702829 89.94229628 23.45018303 65.00488281 14.71386719 C62.44024304 13.80069053 59.91139455 12.80100422 57.375 11.8125 C50.10681704 9.18382177 42.54638089 7.60796617 35 6 C34.33307129 5.85675293 33.66614258 5.71350586 32.97900391 5.56591797 C22.05100585 3.25941053 11.10867253 2.02634474 0 1 C0 0.67 0 0.34 0 0 Z " fill="#FF3287" transform="translate(274,0)"/>
<path d="M0 0 C0.33 0 0.66 0 1 0 C1 78.54 1 157.08 1 238 C-77.54 238 -156.08 238 -237 238 C-237 237.67 -237 237.34 -237 237 C-236.03924561 236.87471924 -235.07849121 236.74943848 -234.08862305 236.62036133 C-208.22057509 233.37798947 -208.22057509 233.37798947 -183 227 C-182.11521973 226.71785645 -181.23043945 226.43571289 -180.31884766 226.14501953 C-131.89557972 210.53820275 -87.52901646 182.37730172 -56 142 C-55.22269531 141.03964844 -54.44539062 140.07929688 -53.64453125 139.08984375 C-21.57135885 98.75617226 -5.68789455 50.614398 0 0 Z " fill="#FF3287" transform="translate(511,274)"/>
<path d="M0 0 C0.33 0 0.66 0 1 0 C1.10489746 0.93344238 1.10489746 0.93344238 1.21191406 1.88574219 C8.3306944 64.26090749 32.29126616 119.36200783 77 164 C77.79277344 164.82757813 78.58554688 165.65515625 79.40234375 166.5078125 C86.41951234 173.75203894 93.90612969 179.99434001 102 186 C102.98661621 186.73718262 102.98661621 186.73718262 103.99316406 187.48925781 C114.51341394 195.29784424 125.40525303 201.91815749 137 208 C137.65258789 208.3501416 138.30517578 208.7002832 138.97753906 209.06103516 C157.99572539 219.25248252 178.00747753 226.17455833 199 231 C199.68433105 231.16193848 200.36866211 231.32387695 201.07373047 231.49072266 C213.21034518 234.32971549 225.63646728 235.56688085 238 237 C238 237.33 238 237.66 238 238 C159.46 238 80.92 238 0 238 C0 159.46 0 80.92 0 0 Z " fill="#FF3287" transform="translate(0,274)"/>
<path d="M0 0 C77.88 0 155.76 0 236 0 C236 0.33 236 0.66 236 1 C235.26813477 1.08451416 234.53626953 1.16902832 233.78222656 1.25610352 C207.57501766 4.36602021 182.36324694 9.544173 158 20 C157.32759277 20.28842773 156.65518555 20.57685547 155.96240234 20.87402344 C151.57681846 22.78623172 147.27569573 24.8536644 143 27 C141.89060059 27.55276611 141.89060059 27.55276611 140.75878906 28.11669922 C129.64050786 33.69411895 119.11627491 39.7601025 109 47 C108.34402832 47.46664062 107.68805664 47.93328125 107.01220703 48.4140625 C98.45627979 54.54270371 90.47217028 61.03239306 82.8671875 68.30859375 C80.88753384 70.166879 78.93513733 71.90562595 76.83984375 73.6171875 C74.53034196 75.55500881 72.61484115 77.39162334 70.6875 79.6875 C68.84475081 81.85873927 67.00138801 83.99852871 65.046875 86.0703125 C27.43773801 126.04743218 7.31366062 179.204152 1 233 C0.67 233 0.34 233 0 233 C0 156.11 0 79.22 0 0 Z " fill="#FF3287" transform="translate(0,0)"/>
</svg>
